<svg id="Layer_1" data-name="Layer 1" xmlns="http://www.w3.org/2000/svg" viewBox="0 0 87 86.96"><defs><style>.cls-1{fill:#f09ca1;}</style></defs><title>icon-evidence</title><path class="cls-1" d="M66.65,56.28l-3.53.15a4.59,4.59,0,0,1-3.43-1.34l-4.57-4.56a31,31,0,1,0-4.52,4.54l4.57,4.55a4.59,4.59,0,0,1,1.35,3.43l-.14,3.53a1.6,1.6,0,0,0,.47,1.19L76,87A11,11,0,0,0,87,76v0L67.84,56.74A1.6,1.6,0,0,0,66.65,56.28ZM13.34,48.73a25,25,0,1,1,35.39,0A25.06,25.06,0,0,1,13.34,48.73Z"/><path class="cls-1" d="M51.84,17.17h0a4.43,4.43,0,0,1-1.07,1.11,5,5,0,0,1-1.47.66l-7.7-7.44a5,5,0,0,1,.6-1.5,4.43,4.43,0,0,1,1.07-1.1L40.38,6.11a8.35,8.35,0,0,0-1.51,1.75,10.2,10.2,0,0,0-1.37,6.72,21.56,21.56,0,0,0,1.75,5.93,22.89,22.89,0,0,1,1.74,5,6.75,6.75,0,0,1,.08,1.16L34.19,20a6.78,6.78,0,0,1,1.16,0,14,14,0,0,1,3,.8,26,26,0,0,1-1.52-4.55c-.32-.06-.63-.14-1-.18a9.72,9.72,0,0,0-3.58.2,7.07,7.07,0,0,0-5.29,5.32,9.42,9.42,0,0,0-.13,3.65,20.06,20.06,0,0,0,2.19,6,17.42,17.42,0,0,1,1.83,4.83,6.14,6.14,0,0,1,.05,1.21l-7-6.79a6.13,6.13,0,0,1,1.22,0,11.8,11.8,0,0,1,2.89.82,23,23,0,0,1-1.84-4.63c-.21,0-.4-.09-.62-.11a9.42,9.42,0,0,0-3.64.26,7.07,7.07,0,0,0-5.13,5.48,9.73,9.73,0,0,0-.07,3.58,24.49,24.49,0,0,0,2,5.88,18.24,18.24,0,0,1,1.47,4.84,8.14,8.14,0,0,1,0,1L13.87,41.6a8.17,8.17,0,0,1,1,0,13.71,13.71,0,0,1,2.87.61h0a35.08,35.08,0,0,1-1.69-4.42h0c-.29,0-.57-.09-.86-.12a10.2,10.2,0,0,0-6.67,1.6A8.34,8.34,0,0,0,6.72,41l2.89,2.78a4.43,4.43,0,0,1,1.18-1.28,5.05,5.05,0,0,1,1.49-.66L20,49.31a5.06,5.06,0,0,1-.61,1.51A4.43,4.43,0,0,1,18.13,52L21,54.82a8.34,8.34,0,0,0,1.68-1.88,10.2,10.2,0,0,0,1.37-6.72,21.53,21.53,0,0,0-1.75-5.93,22.88,22.88,0,0,1-1.73-5,6.8,6.8,0,0,1-.08-1.16l6.88,6.64a6.79,6.79,0,0,1-1.17,0,14.07,14.07,0,0,1-3-.8,26,26,0,0,1,1.53,4.54c.32.06.63.14,1,.18a9.73,9.73,0,0,0,3.58-.2,7.07,7.07,0,0,0,5.29-5.32,9.42,9.42,0,0,0,.13-3.65,20,20,0,0,0-2.2-6,17.42,17.42,0,0,1-1.83-4.83,6.13,6.13,0,0,1-.05-1.22l7,6.79a6.13,6.13,0,0,1-1.21,0,11.87,11.87,0,0,1-2.9-.82,23.1,23.1,0,0,1,1.84,4.63c.21,0,.41.09.62.11a9.42,9.42,0,0,0,3.64-.26,7.07,7.07,0,0,0,5.13-5.48,9.73,9.73,0,0,0,.07-3.58,24.49,24.49,0,0,0-2-5.88,18.23,18.23,0,0,1-1.47-4.84,8.18,8.18,0,0,1,0-1l6.32,6.1a8.18,8.18,0,0,1-1,0,13.68,13.68,0,0,1-2.86-.61A35.06,35.06,0,0,1,45.5,23c.28,0,.56.09.85.12A10.2,10.2,0,0,0,53,21.52a8.34,8.34,0,0,0,1.7-1.58l-2.87-2.77ZM32.67,20.35l8.09,7.81a3.26,3.26,0,0,1-.61,1.06,3.17,3.17,0,0,1-1,.67L31,22a3.21,3.21,0,0,1,.63-1A3.29,3.29,0,0,1,32.67,20.35ZM22.39,30.93l8.17,7.88a3.21,3.21,0,0,1-.63,1,3.31,3.31,0,0,1-1,.65l-8.09-7.81a3.29,3.29,0,0,1,.61-1.06,3.18,3.18,0,0,1,1-.67Z"/></svg>