<svg id="Layer_1" data-name="Layer 1" xmlns="http://www.w3.org/2000/svg" viewBox="0 0 58 99.66"><defs><style>.cls-1{fill:#fac786;}</style></defs><title>icon-pharma</title><path class="cls-1" d="M40.57,19.43H17.43a5.69,5.69,0,0,1-5.86-5.86V5.86A5.69,5.69,0,0,1,17.43,0H40.57a5.69,5.69,0,0,1,5.86,5.86v7.71A5.69,5.69,0,0,1,40.57,19.43ZM17.43,4a1.7,1.7,0,0,0-1.86,1.86v7.71a1.7,1.7,0,0,0,1.86,1.86H40.57a1.7,1.7,0,0,0,1.86-1.86V5.86A1.7,1.7,0,0,0,40.57,4Z"/><path class="cls-1" d="M52.14,99.66H5.86A5.69,5.69,0,0,1,0,93.8V35.17C0,24.44,8.88,21.6,13.57,21.6h.77a1.7,1.7,0,0,0,1.86-1.86V18.2a2,2,0,0,1,4,0v1.54a5.69,5.69,0,0,1-5.86,5.86h-.77c-1,0-9.57.34-9.57,9.57V93.8a1.7,1.7,0,0,0,1.86,1.86H52.14A1.7,1.7,0,0,0,54,93.8V35.17c0-9.23-8.6-9.56-9.58-9.57h-.76a5.69,5.69,0,0,1-5.86-5.86V18.2a2,2,0,1,1,4,0v1.54a1.7,1.7,0,0,0,1.86,1.86h.77C49.12,21.6,58,24.44,58,35.17V93.8A5.69,5.69,0,0,1,52.14,99.66Z"/><rect class="cls-1" x="2.77" y="40.11" width="52.46" height="4"/><rect class="cls-1" x="2.77" y="86.4" width="52.46" height="4"/><path class="cls-1" d="M34.4,43h0a4.15,4.15,0,0,1,0,1.44,4.71,4.71,0,0,1-.56,1.41l-10,.08a4.72,4.72,0,0,1-.58-1.4,4.15,4.15,0,0,1,0-1.44l-3.75,0a7.82,7.82,0,0,0,.14,2.16,9.56,9.56,0,0,0,3.5,5.39,20.2,20.2,0,0,0,5.06,2.82,21.46,21.46,0,0,1,4.41,2.17,6.33,6.33,0,0,1,.82.72l-9,.08a6.35,6.35,0,0,1,.8-.73,13.13,13.13,0,0,1,2.5-1.41,24.36,24.36,0,0,1-4-2c-.26.17-.51.32-.76.52a9.11,9.11,0,0,0-2.26,2.48,6.63,6.63,0,0,0,0,7A8.83,8.83,0,0,0,23,64.84a18.8,18.8,0,0,0,5.41,2.57,16.33,16.33,0,0,1,4.4,2,5.76,5.76,0,0,1,.83.77l-9.16.08a5.75,5.75,0,0,1,.82-.79,11.06,11.06,0,0,1,2.47-1.35,21.56,21.56,0,0,1-4.27-1.89c-.16.11-.33.21-.49.33a8.83,8.83,0,0,0-2.26,2.56,6.63,6.63,0,0,0,.16,7,9.12,9.12,0,0,0,2.3,2.44,23,23,0,0,0,5.2,2.62,17.09,17.09,0,0,1,4.16,2.28,7.63,7.63,0,0,1,.7.66L25,84.26a7.65,7.65,0,0,1,.69-.66,12.85,12.85,0,0,1,2.32-1.48h0a32.88,32.88,0,0,1-4-1.85h0c-.22.16-.44.31-.65.49A9.56,9.56,0,0,0,20,86.21a7.82,7.82,0,0,0-.07,2.36l3.76,0a4.15,4.15,0,0,1,0-1.63,4.74,4.74,0,0,1,.56-1.42l10-.08a4.74,4.74,0,0,1,.58,1.4,4.15,4.15,0,0,1,0,1.63l3.76,0a7.82,7.82,0,0,0-.11-2.36,9.56,9.56,0,0,0-3.5-5.39,20.18,20.18,0,0,0-5.06-2.82,21.45,21.45,0,0,1-4.41-2.18,6.38,6.38,0,0,1-.82-.72l9-.08a6.37,6.37,0,0,1-.81.74A13.19,13.19,0,0,1,30.25,77a24.35,24.35,0,0,1,4,2c.25-.17.51-.32.76-.51a9.12,9.12,0,0,0,2.26-2.48,6.63,6.63,0,0,0,0-7A8.83,8.83,0,0,0,35,66.5a18.79,18.79,0,0,0-5.41-2.57,16.33,16.33,0,0,1-4.4-2,5.75,5.75,0,0,1-.83-.78L33.54,61a5.74,5.74,0,0,1-.82.79,11.12,11.12,0,0,1-2.48,1.35,21.65,21.65,0,0,1,4.27,1.89c.16-.11.33-.21.49-.33a8.83,8.83,0,0,0,2.26-2.56,6.63,6.63,0,0,0-.16-7,9.12,9.12,0,0,0-2.3-2.44,23,23,0,0,0-5.2-2.62,17.09,17.09,0,0,1-4.16-2.28,7.67,7.67,0,0,1-.71-.66L33,47.08a7.66,7.66,0,0,1-.7.67A12.83,12.83,0,0,1,30,49.22a32.86,32.86,0,0,1,4,1.85c.22-.16.44-.31.65-.48A9.56,9.56,0,0,0,38,45.13a7.81,7.81,0,0,0,.1-2.17L34.4,43ZM23.67,57.7l10.54-.09a3.06,3.06,0,0,1,.29,1.11,3,3,0,0,1-.23,1.1l-10.64.09a3,3,0,0,1-.24-1.09A3.09,3.09,0,0,1,23.67,57.7Zm.07,13.83,10.64-.09a3,3,0,0,1,.24,1.09,3.11,3.11,0,0,1-.27,1.11l-10.54.09a3.08,3.08,0,0,1-.29-1.11,3,3,0,0,1,.22-1.09Z"/></svg>