<svg id="Layer_1" data-name="Layer 1" xmlns="http://www.w3.org/2000/svg" viewBox="0 0 99.39 91.44"><defs><style>.cls-1{fill:#7caa83;}</style></defs><title>icon-bioinformatics</title><path class="cls-1" d="M6,0A6,6,0,0,0,0,6V65.6a6,6,0,0,0,6,6H36.35c1.38,3.59,1.13,6.23-.15,8.67s-3.93,4.93-7.05,7.24H21.87a2,2,0,1,0,0,4H77.53a2,2,0,1,0,0-4H70.29c-2.63-2.09-5.1-4-6.48-6.38S62,76,63.18,71.56H93.43a6,6,0,0,0,6-6V6a6,6,0,0,0-6-6ZM6,4H93.43a1.94,1.94,0,0,1,2,2V51.68h-4V15.9H79.51V51.68h-4V23.85H63.61V51.68h-4V31.81H47.71V51.68H4V6A1.94,1.94,0,0,1,6,4ZM47.71,8v4H75.54V8Zm0,8v4H67.59v-4Zm35.78,4h4V51.68h-4Zm-15.9,8h4V51.68h-4Zm-15.9,8h4v15.9h-4ZM4,55.66H95.42V65.6a1.94,1.94,0,0,1-2,2H6a1.94,1.94,0,0,1-2-2ZM49.7,59.11a3,3,0,1,0,3,3A3,3,0,0,0,49.7,59.11ZM40.23,71.63H59.35c-1,4.64-.66,8.56,1,11.45,1.12,1.91,2.83,3,4.39,4.38H34.48c1.9-1.7,4.1-3.2,5.24-5.4C41.26,79.13,41.3,75.51,40.23,71.63Z"/><path class="cls-1" d="M30,4h0a4.36,4.36,0,0,1,0,1.52A5,5,0,0,1,29.41,7l-10.55.19a5,5,0,0,1-.63-1.47,4.37,4.37,0,0,1,0-1.51l-3.94.07a8.23,8.23,0,0,0,.17,2.27,10.05,10.05,0,0,0,3.73,5.63,21.24,21.24,0,0,0,5.35,2.91,22.56,22.56,0,0,1,4.66,2.24,6.65,6.65,0,0,1,.86.75l-9.41.17a6.68,6.68,0,0,1,.83-.78A13.8,13.8,0,0,1,23.08,16a25.6,25.6,0,0,1-4.23-2.11c-.27.18-.54.34-.8.55a9.58,9.58,0,0,0-2.35,2.63,7,7,0,0,0,0,7.4,9.28,9.28,0,0,0,2.45,2.63,19.76,19.76,0,0,0,5.71,2.65,17.16,17.16,0,0,1,4.64,2.09,6.06,6.06,0,0,1,.88.81l-9.63.17a6,6,0,0,1,.86-.84,11.63,11.63,0,0,1,2.58-1.44,22.67,22.67,0,0,1-4.5-1.95c-.17.12-.34.22-.51.35a9.28,9.28,0,0,0-2.35,2.72,7,7,0,0,0,.24,7.39,9.59,9.59,0,0,0,2.45,2.54A24.13,24.13,0,0,0,24,44.32a18,18,0,0,1,4.4,2.35,8,8,0,0,1,.75.68l-8.65.15a8,8,0,0,1,.72-.7,13.51,13.51,0,0,1,2.42-1.57h0a34.56,34.56,0,0,1-4.26-1.9h0c-.23.17-.46.33-.68.52a10.05,10.05,0,0,0-3.53,5.76,8.22,8.22,0,0,0-.05,2.48l4-.07A4.36,4.36,0,0,1,19,50.31a5,5,0,0,1,.58-1.5l10.54-.19a5,5,0,0,1,.63,1.47,4.37,4.37,0,0,1,0,1.72l4-.07a8.22,8.22,0,0,0-.14-2.48,10.05,10.05,0,0,0-3.73-5.63,21.22,21.22,0,0,0-5.35-2.91,22.55,22.55,0,0,1-4.66-2.25,6.7,6.7,0,0,1-.86-.75l9.42-.17a6.69,6.69,0,0,1-.84.78,13.86,13.86,0,0,1-2.61,1.51,25.6,25.6,0,0,1,4.23,2.1c.27-.18.53-.34.79-.55a9.59,9.59,0,0,0,2.35-2.63,7,7,0,0,0,0-7.4,9.28,9.28,0,0,0-2.45-2.63,19.75,19.75,0,0,0-5.71-2.65A17.16,17.16,0,0,1,20.49,24a6,6,0,0,1-.88-.81L29.23,23a6,6,0,0,1-.85.84,11.7,11.7,0,0,1-2.6,1.45,22.76,22.76,0,0,1,4.51,1.95c.17-.12.35-.22.51-.36a9.28,9.28,0,0,0,2.35-2.72,7,7,0,0,0-.24-7.39,9.59,9.59,0,0,0-2.45-2.54A24.13,24.13,0,0,0,25,11.53a18,18,0,0,1-4.4-2.35,8.06,8.06,0,0,1-.75-.68l8.65-.15a8.06,8.06,0,0,1-.72.71,13.48,13.48,0,0,1-2.42,1.57,34.55,34.55,0,0,1,4.26,1.9c.23-.17.46-.33.67-.51a10.05,10.05,0,0,0,3.53-5.76A8.21,8.21,0,0,0,33.89,4L30,4ZM18.82,19.6l11.08-.2a3.21,3.21,0,0,1,.32,1.16A3.13,3.13,0,0,1,30,21.72l-11.18.2a3.16,3.16,0,0,1-.26-1.14A3.24,3.24,0,0,1,18.82,19.6ZM19,34.14l11.18-.2a3.16,3.16,0,0,1,.27,1.15,3.26,3.26,0,0,1-.27,1.17l-11.08.2a3.24,3.24,0,0,1-.32-1.16A3.13,3.13,0,0,1,19,34.14Z"/></svg>