<svg id="Layer_1" data-name="Layer 1" xmlns="http://www.w3.org/2000/svg" viewBox="0 0 90.84 88.02"><defs><style>.cls-1{fill:#4273a7;}</style></defs><title>icon-checkmark</title><path class="cls-1" d="M88.52,8.89l-39,42L37.94,35a4,4,0,0,0-6.48,4.69L45.85,59.57a4,4,0,0,0,3,1.65h.25A4,4,0,0,0,52,60L94.39,14.33a4,4,0,0,0-5.86-5.44Z" transform="translate(-4.53 -6.03)"/><path class="cls-1" d="M87,38.08a4,4,0,0,0-3.13,4.71A36.78,36.78,0,0,1,84.54,50a36,36,0,1,1-18.9-31.68,4,4,0,0,0,3.81-7A44,44,0,1,0,92.54,50a44.75,44.75,0,0,0-.88-8.79A4,4,0,0,0,87,38.08Z" transform="translate(-4.53 -6.03)"/></svg>