<svg id="Layer_1" data-name="Layer 1" xmlns="http://www.w3.org/2000/svg" viewBox="0 0 81.93 105.44"><defs><style>.cls-1{fill:#999;}</style></defs><title>icon-national-programs</title><path class="cls-1" d="M4.58,0A4.58,4.58,0,0,0,0,4.58,4.54,4.54,0,0,0,2.29,8.52v94.62a2.29,2.29,0,1,0,4.58,0V8.52A4.54,4.54,0,0,0,9.17,4.58,4.58,4.58,0,0,0,4.58,0Z"/><path class="cls-1" d="M34.08,63.15a44.61,44.61,0,0,1-24-7l-.93-.59V9.19l3.15,2.21c.17.12,17.53,11.92,38.17,3C57.94,11.16,64.83,9.5,71,9.46h.24c6.2,0,9.36,1.68,9.71,1.87l1,.57V57.85l-3-1.62c-.07,0-8.75-4.36-26.92,3.24A46.48,46.48,0,0,1,34.08,63.15ZM13.17,53.32c11.46,6.88,24.68,7.76,37.34,2.46,14.08-5.89,23.11-5.16,27.42-4.1V14.41a21.39,21.39,0,0,0-6.73-1H71c-5.59,0-12,1.59-18.92,4.6a45,45,0,0,1-38.91-1.53Z"/><path class="cls-1" d="M73,26.71l-9.82-9.47A6.41,6.41,0,0,1,64,15.33a5.65,5.65,0,0,1,1.36-1.41l-3.67-2.46c-.74.65-1.39.32-1.93,1.15A13,13,0,0,0,58,21.17a27.46,27.46,0,0,0,2.23,7.55A29.16,29.16,0,0,1,62.45,35a8.6,8.6,0,0,1,.1,1.48L53.8,28.07a8.63,8.63,0,0,1,1.47.05,17.84,17.84,0,0,1,3.77,1,33.1,33.1,0,0,1-1.94-5.79c-.41-.08-.8-.17-1.23-.22a12.39,12.39,0,0,0-4.56.25,9,9,0,0,0-6.74,6.78,12,12,0,0,0-.17,4.64,25.55,25.55,0,0,0,2.79,7.65,22.19,22.19,0,0,1,2.33,6.16,7.83,7.83,0,0,1,.07,1.54l-9-8.65a7.81,7.81,0,0,1,1.55,0,15,15,0,0,1,3.68,1,29.31,29.31,0,0,1-2.34-5.9c-.26,0-.51-.11-.78-.14a12,12,0,0,0-4.64.33,9,9,0,0,0-6.54,7,12.39,12.39,0,0,0-.09,4.56A31.2,31.2,0,0,0,34,55.88c.9,2.14,1.64,3.19,1.87,5.17A10.38,10.38,0,0,1,36,62.36l-8-6.76a10.4,10.4,0,0,1,1.3,0,17.47,17.47,0,0,1,3.65.78h0a44.69,44.69,0,0,1-2.16-5.63c-.36-.05-.72-.12-1.09-.15a13,13,0,0,0-8.49,2A40.16,40.16,0,0,0,16.65,57l5.83,3.55c.4-.63.89-3.36,1.5-3.78a6.44,6.44,0,0,1,1.9-.84l8.81,6.47c-.17.7,6.53.88,6.21-1.93s-1.27-4.28-2.23-6.55a29.15,29.15,0,0,1-2.21-6.31,8.67,8.67,0,0,1-.11-1.47l8.76,8.46a8.65,8.65,0,0,1-1.48-.05,17.92,17.92,0,0,1-3.77-1,33.1,33.1,0,0,1,1.94,5.79c.41.08.8.17,1.22.22a12.39,12.39,0,0,0,4.56-.25,9,9,0,0,0,6.74-6.78,12,12,0,0,0,.17-4.64,25.54,25.54,0,0,0-2.8-7.64,22.19,22.19,0,0,1-2.33-6.16,7.81,7.81,0,0,1-.07-1.55l9,8.65a7.81,7.81,0,0,1-1.54,0,15.12,15.12,0,0,1-3.7-1A29.43,29.43,0,0,1,55.36,46c.27,0,.52.11.79.15a12,12,0,0,0,4.64-.33,9,9,0,0,0,6.54-7,12.39,12.39,0,0,0,.09-4.56,31.2,31.2,0,0,0-2.55-7.5A23.23,23.23,0,0,1,63,20.6a10.42,10.42,0,0,1-.06-1.31L71,27.06a10.42,10.42,0,0,1-1.31,0A17.44,17.44,0,0,1,66,26.27a44.67,44.67,0,0,1,2.16,5.63c.36.05.72.12,1.09.15a13,13,0,0,0,8.49-2,10.62,10.62,0,0,0,2.16-2l-1.66-5.53S73.73,26.52,73,26.71Zm-21.17,1.8,10.31,9.95a4.15,4.15,0,0,1-.77,1.35,4,4,0,0,1-1.26.85l-10.4-10a4.09,4.09,0,0,1,.8-1.29A4.19,4.19,0,0,1,51.86,28.52ZM38.76,42l10.4,10a4.09,4.09,0,0,1-.8,1.29,4.22,4.22,0,0,1-1.32.82l-10.31-10a4.19,4.19,0,0,1,.77-1.35A4,4,0,0,1,38.76,42Z"/></svg>