<svg id="Layer_1" data-name="Layer 1" xmlns="http://www.w3.org/2000/svg" viewBox="0 0 92.1 85.2"><defs><style>.cls-1{fill:#6e93ad;}</style></defs><title>icon-policy</title><path class="cls-1" d="M0,47c.2,5,6.8,8.7,15.6,8.7S31.1,52,31.2,47v-.8c0-.1,0-.1-.1-.2s-.1-.1-.1-.2a.1.1,0,0,0-.1-.1l-12-20.3H44.6v47c-11.6.4-23.3,4.2-23.3,10.8a2,2,0,0,0,2,2H69.8a2,2,0,0,0,2-2c0-6.7-11.6-10.4-23.3-10.8v-47H73.1l-12,20.4v.1c0,.1-.1.1-.1.2s0,.1-.1.2V47c.2,5,6.8,8.7,15.6,8.7S92,52,92.1,47v-.8c0-.1,0-.1-.1-.2s-.1-.1-.1-.2a.1.1,0,0,0-.1-.1L78.4,22.9a1.93,1.93,0,0,0-1.9-1.5H48.6V13.9a7.2,7.2,0,0,0,5.1-6.8,7.1,7.1,0,1,0-9.1,6.8v7.5h-29A1.93,1.93,0,0,0,13.7,23L.2,45.8v.1c0,.1-.1.1-.1.2s0,.1-.1.2V47Zm76.6,4.7c-4.9,0-8.6-1.4-10.4-2.9H87C85.2,50.3,81.5,51.7,76.6,51.7Zm-.1-24.1L86.7,44.8H66.4ZM43.5,7.1a3.1,3.1,0,1,1,3.1,3.1A3.12,3.12,0,0,1,43.5,7.1Zm3.1,69.2c10.1,0,17.3,2.5,20,4.9h-40C29.3,78.8,36.5,76.3,46.6,76.3Zm-31-48.7L25.8,44.8H5.5ZM26,48.8c-1.8,1.5-5.5,2.9-10.4,2.9S7,50.3,5.2,48.8Z"/><path class="cls-1" d="M52.2,24.36h0a4.58,4.58,0,0,1,0,1.59,5.21,5.21,0,0,1-.6,1.56l-11.08.2a5.21,5.21,0,0,1-.66-1.54,4.59,4.59,0,0,1,0-1.59l-4.14.07A8.64,8.64,0,0,0,35.9,27,10.56,10.56,0,0,0,39.81,33,22.31,22.31,0,0,0,45.43,36a23.69,23.69,0,0,1,4.9,2.36,7,7,0,0,1,.91.79l-9.88.18a7,7,0,0,1,.88-.82A14.5,14.5,0,0,1,45,36.94a26.9,26.9,0,0,1-4.44-2.21c-.28.19-.56.36-.84.58a10.06,10.06,0,0,0-2.47,2.76,7.32,7.32,0,0,0,0,7.77,9.75,9.75,0,0,0,2.57,2.76,20.76,20.76,0,0,0,6,2.79,18,18,0,0,1,4.88,2.2,6.36,6.36,0,0,1,.93.85l-10.12.18a6.35,6.35,0,0,1,.9-.88,12.22,12.22,0,0,1,2.72-1.52,23.82,23.82,0,0,1-4.73-2c-.18.13-.36.23-.53.37a9.75,9.75,0,0,0-2.47,2.85,7.32,7.32,0,0,0,.25,7.77,10.07,10.07,0,0,0,2.57,2.67A25.35,25.35,0,0,0,46,66.68a18.88,18.88,0,0,1,4.62,2.47,8.43,8.43,0,0,1,.78.72L42.3,70a8.45,8.45,0,0,1,.76-.74,14.19,14.19,0,0,1,2.55-1.65h0a36.31,36.31,0,0,1-4.47-2h0c-.24.18-.48.35-.71.54a10.56,10.56,0,0,0-3.7,6.05,8.63,8.63,0,0,0-.06,2.61l4.15-.07a4.58,4.58,0,0,1-.07-1.8,5.23,5.23,0,0,1,.61-1.57l11.07-.2a5.23,5.23,0,0,1,.66,1.55,4.59,4.59,0,0,1,0,1.8l4.15-.07A8.63,8.63,0,0,0,57,71.87,10.56,10.56,0,0,0,53.13,66a22.29,22.29,0,0,0-5.62-3.06,23.68,23.68,0,0,1-4.9-2.36,7,7,0,0,1-.91-.79l9.89-.18a7,7,0,0,1-.88.82A14.56,14.56,0,0,1,48,62a26.89,26.89,0,0,1,4.44,2.21c.28-.19.56-.36.83-.57a10.07,10.07,0,0,0,2.47-2.76,7.32,7.32,0,0,0,0-7.77,9.75,9.75,0,0,0-2.57-2.76,20.75,20.75,0,0,0-6-2.78,18,18,0,0,1-4.88-2.2,6.35,6.35,0,0,1-.93-.85l10.12-.18a6.34,6.34,0,0,1-.89.88,12.29,12.29,0,0,1-2.73,1.52,23.91,23.91,0,0,1,4.73,2c.18-.13.36-.23.54-.37a9.75,9.75,0,0,0,2.47-2.85,7.32,7.32,0,0,0-.25-7.77,10.07,10.07,0,0,0-2.57-2.67A25.35,25.35,0,0,0,47,32.23a18.87,18.87,0,0,1-4.62-2.47,8.47,8.47,0,0,1-.79-.72l9.09-.16a8.46,8.46,0,0,1-.76.75,14.16,14.16,0,0,1-2.54,1.65,36.29,36.29,0,0,1,4.48,2c.24-.18.48-.34.71-.54a10.56,10.56,0,0,0,3.7-6.05,8.63,8.63,0,0,0,.09-2.4l-4.13.07ZM40.5,40.71l11.64-.21a3.38,3.38,0,0,1,.33,1.22,3.28,3.28,0,0,1-.24,1.21l-11.74.21a3.32,3.32,0,0,1-.28-1.2A3.41,3.41,0,0,1,40.5,40.71ZM40.71,56l11.74-.21a3.32,3.32,0,0,1,.28,1.2,3.43,3.43,0,0,1-.29,1.23l-11.64.21a3.4,3.4,0,0,1-.33-1.22A3.29,3.29,0,0,1,40.71,56Z"/></svg>